<svg width="425" height="67" viewBox="0 0 425 67" fill="none" xmlns="http://www.w3.org/2000/svg">
<rect width="425" height="67" fill="#00DA76"/>
<path d="M143.69 39.9038V37.0467H140.832V28.4752H143.69V25.6181H152.261V28.4752H155.118V31.3324H149.404V28.4752H146.547V37.0467H149.404V34.1895H155.118V37.0467H152.261V39.9038H143.69ZM163.348 39.9038V37.0467H160.491V28.4752H163.348V25.6181H171.92V28.4752H174.777V37.0467H171.92V39.9038H163.348ZM166.206 37.0467H169.063V28.4752H166.206V37.0467ZM180.15 39.9038V25.6181H185.864V28.4752H188.722V31.3324H191.579V25.6181H197.293V39.9038H191.579V37.0467H188.722V34.1895H185.864V39.9038H180.15ZM205.525 39.9038V28.4752H202.668V25.6181H214.097V28.4752H211.24V39.9038H205.525ZM219.468 39.9038V25.6181H225.182V39.9038H219.468ZM230.572 39.9038V25.6181H236.286V28.4752H239.143V31.3324H242.001V25.6181H247.715V39.9038H242.001V37.0467H239.143V34.1895H236.286V39.9038H230.572ZM255.947 39.9038V37.0467H253.09V25.6181H258.804V37.0467H261.662V25.6181H267.376V37.0467H264.519V39.9038H255.947ZM284.178 28.4752H278.463V31.3324H284.178V34.1895H278.463V37.0467H284.178V39.9038H272.749V25.6181H284.178V28.4752Z" fill="white"/>
</svg>
