<svg width="102" height="35" viewBox="0 0 102 35" fill="none" xmlns="http://www.w3.org/2000/svg">
<rect width="102" height="35" fill="#2F112D"/>
<path d="M21.752 22V10.0952H31.2759V12.4762H33.6568V14.8571H31.2759V17.2381H26.514V22H21.752ZM26.514 14.8571H28.8949V12.4762H26.514V14.8571ZM40.4598 22V19.619H38.0789V12.4762H40.4598V10.0952H47.6027V12.4762H49.9836V19.619H47.6027V22H40.4598ZM42.8408 19.619H45.2217V12.4762H42.8408V19.619ZM54.4057 22V19.619H61.5485V17.2381H56.7866V14.8571H54.4057V12.4762H56.7866V10.0952H66.3105V12.4762H59.1676V14.8571H63.9295V17.2381H66.3105V19.619H63.9295V22H54.4057ZM73.1135 22V12.4762H70.7325V10.0952H80.2563V12.4762H77.8754V22H73.1135Z" fill="#150714"/>
</svg>
